<?xml version="1.0" encoding="utf-8"?>
<!-- Generator: Adobe Illustrator 21.0.0, SVG Export Plug-In . SVG Version: 6.00 Build 0)  -->
<svg version="1.1" id="图层_1" xmlns="http://www.w3.org/2000/svg" xmlns:xlink="http://www.w3.org/1999/xlink" x="0px" y="0px"
	 viewBox="0 0 1700.8 910" style="enable-background:new 0 0 1700.8 910;" xml:space="preserve">
<style type="text/css">
	.st0{fill:#679FD2;}
	.st1{fill:#FE66A6;}
	.st2{fill:#FE74AE;}
	.st3{fill:none;stroke:#679FD2;stroke-width:6;stroke-linecap:round;stroke-miterlimit:10;}
</style>
<path class="st0" d="M726.2,246.1c-2.9,2.8-8,4.2-15.4,4.2c-13.2,0-19.8-4.8-19.8-14.4v-4c0-1.3-0.2-2.2-0.4-2.6
	c-0.3-0.4-1.1-0.6-2.5-0.6H574.7c-1.2,0-1.9,0.2-2.2,0.7s-0.4,1.3-0.4,2.5v5.6c0,10.6-6.6,15.9-19.8,15.9c-7.5,0-12.6-1.3-15.4-3.9
	c-2.8-2.6-4.2-8.3-4.2-17.2v-20.9c0-8.7,1.5-14.3,4.5-17c3-2.6,8.2-3.9,15.5-3.9H605c1.5,0,2.2-0.9,2.2-2.7c0-6.1,2.8-10.3,8.4-12.4
	c5.6-2.1,12.1-3.1,19.4-3.1c13.2,0,20.1,5.4,20.7,16.2c0,1.3,0.5,2,1.6,2h53.2c8.2,0,13.6,1.5,16.2,4.4c2.5,2.9,3.8,8.4,3.8,16.5
	v17.3C730.6,237.5,729.1,243.3,726.2,246.1L726.2,246.1z"/>
<path class="st0" d="M669.5,353.5c-2.7,0-5.1-0.4-7.3-1.1c-2.2-0.8-4.6-3.9-7.4-9.5c-2.8-5.6-5.5-10.6-8.3-15s-4.2-8.3-4.2-11.8
	c0-3.4,2.4-6.9,7.2-10.4s9.3-5.3,13.5-5.3c2.4,0,4.5,0.5,6.2,1.6c1.7,1,4,3.8,7,8.2c2.9,4.4,5.5,9.3,7.6,14.6c2.2,5.3,3.3,10,3.3,14
	s-2.2,7.5-6.7,10.4C675.8,352.1,672.2,353.5,669.5,353.5L669.5,353.5z"/>
<path class="st0" d="M550.7,339.6h56.1c1.8,0,2.7-0.9,2.7-2.7v-10.6c0-1.6-1-2.5-2.9-2.5h-38.2c-7.5,0-12.4-1-14.8-2.9
	c-2.4-1.9-3.6-6.4-3.6-13.3s1.1-11.6,3.4-14c2.2-2.5,7.3-3.7,15-3.7h38.2c1.2,0,2-0.2,2.4-0.6s0.6-1.2,0.6-2.4v-7.6
	c0-1.8-0.9-2.7-2.7-2.7H553c-3.6,0-5.9-0.5-7-1.5c-1-1-2.1-2.7-3-5.1c-1-2.4-1.5-4.3-1.5-5.6c0-1.3,0.8-2.3,2.5-2.9
	c1.6-0.6,5.1-0.9,10.4-0.9c5.3,0,10.2-1.1,14.6-3.4c4.4-2.2,7.3-5.4,8.6-9.5s2.5-6.7,3.5-7.9c1-1.1,2.2-1.7,3.7-1.7h92.5
	c1.8,0,3.1,0.5,4,1.3c0.9,0.9,2.5,3.4,4.9,7.4c4,7,12.2,10.6,24.5,10.6c5.2,0,8.6,0.4,10.1,1.1c1.5,0.8,2.2,1.9,2.2,3.6
	c0,1.6-0.4,3.8-1.1,6.5c-0.8,2.7-1.8,4.7-3.1,6s-3.7,1.9-7,1.9h-58.4c-1.8,0-2.7,0.7-2.7,2v8.5c0,1.8,0.8,2.7,2.5,2.7h46
	c8.1,0,13.2,1.2,15.3,3.7s3.1,7.2,3.1,14c0,6.9-1.2,11.3-3.6,13.3c-2.4,1.9-7.3,2.9-14.8,2.9h-4.7c-2.2,0-3.6-0.7-4-2.2
	c-2.4-6-5.4-11.6-9.1-16.7c-3.7-5.2-6.8-8.5-9.3-9.9s-5.5-2.1-8.8-2.1c-6,0-12.3,2.4-19,7.2c-6.7,4.8-10,10.2-10,16.2
	c0,2.4,0.4,4.7,1.2,6.8c0.8,2.2,2.7,5.7,5.5,10.6s5.4,9.3,7.5,13.3c2.2,4,4,6.8,5.4,8.4s3.3,3,5.7,4.2c2.4,1.1,5.4,1.7,8.9,1.7
	s7.5-1.2,11.9-3.6s7.6-4.6,9.4-6.7c1.9-2.1,3.4-5.2,4.6-9.2c0.4-1.3,1.9-2,4.5-2h15.9c7.5,0,12.5,1.4,15.2,4.2
	c2.6,2.8,3.9,8,3.9,15.7s-1.4,13-4.2,15.7c-2.8,2.8-7.7,4.2-14.9,4.2H550.7c-7.2,0-12.2-1.4-14.9-4.2c-2.8-2.8-4.2-8-4.2-15.8
	s1.3-13,3.9-15.7C538.2,341,543.2,339.6,550.7,339.6L550.7,339.6z"/>
<path class="st0" d="M952.8,375.7c-4.3,5.8-8.8,8.6-13.7,8.6s-10.2-1.9-16.1-5.8c-17.8-11.8-33.5-21.2-47.2-28.1
	c-6.4-3.3-9.7-7-9.7-11.2s2.1-10,6.2-17.3c4.1-7.3,8.6-11,13.6-11c1.8,0,3,0.3,3.7,0.8s1.2,1.5,1.7,2.8c1.6,4.6,4.8,8.1,9.3,10.2
	c4.6,2.2,11.6,3.3,21,3.3c2.8,0,5.3,0.5,7.3,1.5s5.1,2.9,9.2,5.8c4.1,2.9,7.8,5.9,11.1,8.9s5.8,5.8,7.4,8.4c1.6,2.6,2.5,5.3,2.5,8
	C959.2,364.8,957.1,369.9,952.8,375.7L952.8,375.7z"/>
<path class="st0" d="M940.6,315.7c-3.3,2.6-9.4,3.9-18.4,3.9s-15.1-1.3-18.4-3.9c-3.3-2.6-4.9-7.6-4.9-14.9v-77.5
	c0-2.2-0.3-3.7-0.8-4.5c-0.5-0.7-2.1-1.1-4.8-1.1H823c-2.7,0-4.3,0.4-4.8,1.1c-0.5,0.8-0.8,2.2-0.8,4.5v78.8c0,7.5-1.6,12.5-4.8,15
	s-9.3,3.8-18.3,3.8s-15.1-1.3-18.3-3.8s-4.8-7.6-4.8-15v-84c0-16.5,2.6-27.4,7.9-32.8c5.2-5.4,15.3-8.1,30.1-8.1h99.7
	c16.3,0,26.5,3,30.7,8.9c4.1,5.9,6.2,16.7,6.2,32.2v82.4C945.5,308.1,943.9,313.1,940.6,315.7L940.6,315.7z"/>
<path class="st0" d="M811.4,328.1c6.6-3.4,11.4-8,14.5-13.7s5.1-12.9,6-21.6s1.6-22.4,2-41.1c0.3-13.5,8.5-20.2,24.5-20.2
	c8.1,0,14,1.5,17.9,4.6c3.8,3.1,5.7,8,5.7,14.7c0,15.6-0.3,27.6-1,36c-0.7,8.5-1.2,13.4-1.7,14.8c-0.4,1.4-1.1,2.4-2,2.8
	c-4.6,2.4-9.1,7.7-13.5,15.8c-4.3,8.2-6.5,14.6-6.5,19.4c0,1.9,0.2,3.4,0.7,4.4s0.7,1.9,0.7,2.7c0,0.8-0.8,2-2.2,3.5
	c-1.5,1.5-5.7,4.6-12.6,9.3c-6.9,4.7-13.4,8.8-19.6,12.1c-6.2,3.4-13.8,6.2-22.8,8.5s-16.2,3.5-21.6,3.5c-15.3,0-22.9-8.2-22.9-24.7
	c0-5.4,1.9-9.6,5.8-12.6c3.9-3,11.3-6,22.3-8.9C796.1,334.8,804.9,331.6,811.4,328.1L811.4,328.1z"/>
<path class="st1" d="M1162.7,276.5c-4.8,0-8.8-1.1-11.9-3.4c-3.1-2.2-4.7-4.8-4.7-7.6c0-2.8-0.4-4.7-1.1-5.5c-0.8-0.8-2.1-1.2-4-1.2
	h-39.1c-1.3,0-2.5-0.7-3.4-2c-2.7-4.6-7-8-12.9-10.1s-10.7-3.1-14.5-3.1c-3.7,0-7.2,1-10.3,3c-3.1,2-6.5,5.4-10.1,10
	c-1,1.5-2.5,2.2-4.3,2.2h-22.2c-1.6,0-2.7,0.4-3,1.1c-0.4,0.8-0.6,2.7-0.6,6c0,3.2-1.6,5.8-4.7,7.9c-3.1,2-7.5,3-13,3
	c-13.3,0-20-5.4-20-16.2v-13c0-5.5,1.7-9.8,5.2-12.8c3.4-3,8.3-4.5,14.6-4.5h15c1.6,0,2.5-0.3,2.5-0.9c0-0.6-0.5-1.8-1.5-3.5
	s-1.5-3.5-1.5-5.3c0-3.6,2.1-7,6.2-10.2s8.1-4.8,12-4.8c7.8,0,16.2,7.5,25.4,22.5c0.6,1,1.3,1.7,2.1,1.9c0.8,0.2,2.3,0.3,4.5,0.3
	s3.3-0.3,3.3-0.8s-0.2-1-0.4-1.5c-2.2-4.5-3.4-7.9-3.4-10.1c0-4.2,2.1-7.7,6.2-10.7c4.1-2.9,8-4.4,11.8-4.4
	c9.3,0,17.4,8.4,24.5,25.2c0.6,1.5,1.8,2.2,3.6,2.2c1.6,0,3.1-0.8,4.5-2.5c1.3-1.6,4.5-7.3,9.4-16.8c2.7-5.1,5.8-7.6,9.4-7.6
	s8,1.5,13.2,4.5s7.9,6.1,7.9,9.2c0,3.1-0.5,5.9-1.5,8.2s-1.5,3.7-1.5,4.3c0,0.5,0.7,0.8,2,0.8h9.2c5.4,0,9.5,1.5,12.5,4.5
	c2.9,3,4.4,7.3,4.4,12.8v12.8C1182.4,271.1,1175.9,276.5,1162.7,276.5L1162.7,276.5z"/>
<path class="st1" d="M1169.4,211.4c-2.1,0-4.7-1.3-7.7-3.9c-3.1-2.6-7.2-5.2-12.2-7.7c-5.1-2.5-9.5-3.8-13.2-3.8
	c-6.3,0-11.5,3.7-15.5,11c-2.1,3.7-4.6,5.6-7.4,5.6s-6.4-2.4-10.6-7.2c-5.4-6.4-11.5-9.7-18.2-9.7s-13,2.8-18.9,8.3
	c-3.6,3.4-6.2,5.2-7.7,5.2s-3.8-1-6.6-3.1c-6.4-5.1-12.1-7.6-16.8-7.6c-4.8,0-9.7,1.9-14.6,5.7s-8.2,7.4-9.7,10.9
	c-1.5,3.4-3.4,5.2-5.7,5.2s-4.9-1.4-7.7-4.3c-2.8-2.8-4.6-5.4-5.3-7.5c-0.7-2.2-1-6.1-1-11.9c0-5.8,1.6-10,4.8-12.6
	s8.2-3.9,14.9-3.9c34.6,0,61-0.3,79.3-0.9c18.3-0.6,36.8-2.2,55.5-4.9c3.9-0.4,7.3-0.7,10.1-0.7c7.2,0,12.4,1.5,15.6,4.5
	s4.8,7.9,4.8,14.8C1175.5,205.1,1173.5,211.4,1169.4,211.4L1169.4,211.4z"/>
<path class="st1" d="M1178.9,347.8c-3.2-2.4-10.4-3.6-21.4-3.6s-16.5-0.4-16.5-1.3c0-0.3,0.4-0.7,1.3-1.3c8-6.3,13.1-11.4,15.4-15.2
	s3.5-8.4,3.5-13.9s-0.6-9-1.6-10.6c-1-1.6-3.2-2.4-6.5-2.4h-77.9c-0.9,0-1.3-0.2-1.3-0.6c0-0.4,0.7-1.6,2.1-3.6s3.3-3,5.5-3h77.5
	c1.8,0,2.9-0.3,3.3-1.1c0.4-0.8,0.6-1.9,0.6-3.6c0-1.6-0.3-2.6-0.8-3.1c-0.5-0.4-2.4-0.8-5.6-1.1s-6.6-1.8-10.2-4.5s-6-5.8-7-9.2
	c-0.5-1.5-1-2.4-1.7-2.7c-0.7-0.2-2.2-0.4-4.6-0.4h-38.9c-1.5,0-2.2-0.7-2.2-2.2c0-4.2-2.5-7.5-7.4-10c-5-2.5-8.9-3.7-11.7-3.7
	c-2.9,0-5.2,0.4-7,1.3c-1.8,0.9-3.1,1.8-4,2.7c-0.9,0.9-3.9,4.3-8.8,10.1c-1,1.2-2.4,1.8-4,1.8h-14.8c-2.6,0-4.3,0.4-5.3,1.3
	c-1,0.9-2.2,2.8-3.7,5.6c-3,6.3-10.6,9.7-22.7,10.3c-1.9,0.2-3.2,0.5-3.9,0.9c-0.7,0.4-1,1.5-1,3.1c0,1.7,0.3,2.8,0.8,3.5
	s1.5,1,2.8,1h18.9c1.3,0,2,0.3,2,0.8c0,0.6-2.5,2-7.4,4.2c-5,2.3-9.8,4.1-14.4,5.4c-11.2,3.5-16.8,8.6-16.8,15.3
	c0,4.2,1.7,8.8,5.1,13.9c3.4,5.1,7.9,7.6,13.7,7.6s11.2-1.2,16.3-3.4c5.1-2.3,8.1-3.4,9-3.4s3.4,1.5,7.5,4.3s6.2,4.4,6.2,4.8
	c0,0.3-1.9,0.8-5.8,1.2c-3.8,0.5-11,1.1-21.4,1.8c-10.4,0.8-17.8,1.7-22.1,2.7s-7.2,2.8-9,5.4c-1.3,2.5-2,6.5-2,12
	c0,8.7,2.2,13.9,6.5,15.7c4.4,1.8,11.9,2.7,22.6,2.7s23.2-1.2,37.5-3.7s28.3-5.9,41.9-10.2c0.7-0.3,1.4-0.4,2.2-0.4
	c0.7,0,1.4,0.1,2.2,0.4c13.8,5.2,27.1,8.9,39.8,11c12.7,2.1,22.7,3.1,30,3.1s12.4-1.3,15.5-4s4.6-8.1,4.6-16.1
	S1182.2,350.2,1178.9,347.8z M1106.7,330.4c-7.6,2.4-12.3,3.6-14,3.6c-1.7,0-6-1.5-12.8-4.6c-6.8-3.1-10.2-4.8-10.2-5.1
	c0-0.2,0.6-0.4,1.8-0.4h42.9c2.5,0,3.8,0.4,3.8,1.1C1118.2,326.2,1114.3,328,1106.7,330.4z"/>
<path class="st0" d="M1411.4,362.8c0-6.4-1.2-11.1-3.7-14c-2.5-2.9-7.4-4.4-14.7-4.4c-0.7,0-1.1-0.7-1.1-2.2v-35.9
	c0-4.6-1-8.3-3.1-10.9c-2.1-2.6-4.5-3.9-7.1-3.9c-2.6,0-4.9,0.7-6.8,2c-8.6,6.5-15.8,9.7-21.4,9.7s-10-2.7-13.1-8.1
	c-1-1.8-2.3-2.7-3.7-2.7s-3.3,0.3-5.8,0.8s-6.1,0.8-11,0.8c-4.9,0-10-0.4-15.2-1.3c-1.8-0.1-3.1,0.5-3.8,1.8
	c-2.8,5.4-10.1,8.1-21.9,8.1c-11.7,0-19.1-2.5-22.1-7.4c-1.3-2.1-2.9-3.1-4.7-3.1h-9.4c-8.8,0-14.7,1.6-17.7,4.9s-4.5,9.3-4.5,18
	v27.4c0,1.5-0.6,2.2-1.6,2.2c-7.1,0-11.9,1.5-14.5,4.3c-2.6,2.9-3.9,7.7-3.9,14.4s1.2,11.4,3.5,14c2.3,2.6,7.3,3.9,14.9,3.9h174.3
	c7.3,0,12.2-1.5,14.7-4.3C1410.5,374,1411.7,369.4,1411.4,362.8z M1275,342.8c0,1.2-0.6,1.8-1.8,1.8h-9c-1.2,0-1.8-0.7-1.8-2v-17.1
	c0-1.7,0.2-2.8,0.6-3.3c0.4-0.5,1.6-0.8,3.7-0.8h6.7c1.1,0,1.6,0.6,1.6,1.6h0V342.8z M1312.9,342.6c0,1.3-0.7,2-2,2h-8.8
	c-1.3,0-2-0.6-2-1.8V323c0-1.1,0.4-1.6,1.3-1.6h9.7c1.2,0,1.8,0.6,1.8,1.8V342.6z M1350.3,325.5v17.3c0,1.2-0.6,1.8-1.6,1.8h-9.4
	c-1.1,0-1.6-0.6-1.6-1.6v-19.7c0-1.2,0.6-1.8,1.6-1.8h7c2,0,3.1,0.3,3.5,0.9C1350.2,323,1350.4,324,1350.3,325.5L1350.3,325.5z"/>
<path class="st0" d="M1339.4,254.3c3.7-2.7,7.5-4,11.2-4c2.5,0,4.8,0.7,6.7,2c1.9,1.3,4,3.5,6.1,6.4c2.1,2.9,4.3,6.5,6.5,10.7
	s3.4,7.6,3.4,10.3c0,4.8-2.5,8.6-7.5,11.5c-5,2.8-8.8,4.3-11.2,4.3c-2.5,0-4.4-0.7-5.8-2.1s-3.3-4.2-5.5-8.2l-6.3-11.5
	c-2.1-3.6-3.1-6.7-3.1-9.2C1333.8,260.3,1335.7,257,1339.4,254.3L1339.4,254.3z"/>
<path class="st0" d="M1331.6,281.4c0,3.6-4,5.4-11.9,5.4c-10.2,0-16.7-1.8-19.5-5.3s-4.3-7.3-4.3-11.2c0-4,1-7.6,2.9-10.9
	c5.4-8.1,9.9-15.8,13.5-23c3.6-7.3,6.6-11.6,9-13.1s5.6-2.2,9.7-2.2c10,0,16.1,3.4,18.2,10.1c0.3,0.9,1.2,1.3,2.7,1.3h29
	c6.6,0,11.1,1.3,13.6,4s3.7,7.9,3.7,15.5s-1,12.9-3,15.8s-5.5,4.4-10.4,4.4c-1.7,0-3-0.3-4-0.9s-2.1-1.9-3.1-3.8
	c-4.6-8.8-8.9-15.2-12.9-19s-8.6-5.7-14-5.7s-10.7,2-16.1,6c-5.3,4-8,8.8-8,14.5c0,3.7,0.9,7.3,2.6,10.8
	C1330.7,277.5,1331.6,279.9,1331.6,281.4L1331.6,281.4z"/>
<path class="st0" d="M1293.8,288.2c0,4.6-4.8,7-14.4,7c-7.3,0-12.2-1.1-14.7-3.4c-2.5-2.2-3.7-6.8-3.7-13.7v-39.5
	c0-5.1,1.7-9.2,5.1-12.5c3.4-3.2,7.8-4.8,13.4-4.8c5.5,0,10,1.6,13.2,4.8c3.3,3.2,4.9,7.4,4.9,12.5v5.2c0,3-0.9,5.7-2.7,8.1
	c-4.2,5.4-6.3,11.6-6.3,18.6c0,4.9,0.9,8.7,2.6,11.2C1293,284.2,1293.8,286.4,1293.8,288.2L1293.8,288.2z"/>
<path class="st0" d="M1235.3,230.7c7.1,0,11.9,1.1,14.5,3.3c2.5,2.2,3.8,6.8,3.8,14v20.7c0,7.2-1.3,11.9-3.8,14
	c-2.5,2.2-7.4,3.3-14.5,3.3s-11.9-1.2-14.5-3.5c-2.5-2.3-3.8-6.9-3.8-13.8V248c0-6.9,1.3-11.5,3.8-13.8
	C1223.4,231.8,1228.2,230.7,1235.3,230.7L1235.3,230.7z"/>
<path class="st0" d="M1387.3,222.8h-27.2c-1.5,0-2.3,0.9-2.4,2.6c-0.1,1.7-0.3,2.6-0.8,2.6c-0.4,0-1.6-1.5-3.4-4.5s-4.7-5.4-8.8-7.2
	c-4-1.8-8.7-2.7-13.9-2.7c-8.5,0-14.6,2.3-18.2,7c-1,1.5-2.5,2.2-4.3,2.2h-6.5c-1,0-2.5-0.8-4.3-2.5c-4.9-4.2-11.2-6.3-18.9-6.3
	c-10.3,0-17.5,3.8-21.6,11.5c-1.3,2.5-2.3,3.8-2.9,3.8s-0.9-0.8-0.9-2.5c0-1.6-0.1-2.7-0.3-3.3c-0.2-0.5-1-0.8-2.4-0.8h-27.8
	c-12.3,0-18.4-5.8-18.4-17.5c0-6.3,1.3-10.8,3.8-13.6s7.4-4.2,14.6-4.2h28.7c1.2,0,1.9-0.7,2.2-2c0.7-4.5,2.7-7.7,5.7-9.7
	c3.1-1.9,7.5-2.9,13.2-2.9c5.8,0,10.1,1,12.9,2.9s4.7,5.2,5.6,9.9c0.3,1.2,1.1,1.8,2.5,1.8h23.6c1.5,0,2.3-0.7,2.5-2
	c0.9-4.5,2.8-7.7,5.7-9.7c2.9-1.9,7.2-2.9,12.9-2.9c5.7,0,10.1,1,13.1,2.9c3.1,1.9,5,5.1,5.7,9.4c0.1,1.5,1,2.2,2.5,2.2h27.4
	c6.7,0,11.5,1.4,14.4,4.2c2.8,2.8,4.3,7.3,4.3,13.5s-1.1,10.7-3.4,13.5C1400.3,221.4,1395.2,222.8,1387.3,222.8L1387.3,222.8z"/>
<path class="st0" d="M1614.5,290h-43.8c-3,0-4.5,0.8-4.5,2.5c0,1.6,2.2,5.3,6.7,10.9s11.4,11.8,20.7,18.4c9.3,6.7,17.4,11,24.5,12.9
	c11.1,3.1,16.6,8.9,16.6,17.3c0,5.1-1.8,11.2-5.5,18.2s-9.7,10.6-18.1,10.6c-6.1,0-14-1.9-23.5-5.8s-20-9.9-31.3-18
	c-11.4-8.1-17.1-13.8-17.1-17.3c0-1.3,0.9-3.6,2.6-6.6c1.7-3.1,2.6-5.3,2.6-6.7c0-1.4-1.1-2.8-3.3-4c-2.2-1.3-3.7-1.9-4.6-1.9
	s-1.9,1-2.9,2.9c-10,18.4-23.2,32.7-39.5,42.9c-16.3,10.2-29.9,15.3-40.6,15.3c-7.6,0-13.4-2.3-17.3-6.9s-5.8-9.9-5.8-16.1
	c0-6.1,1.6-11.4,4.8-15.8c3.2-4.4,8.2-7.6,14.9-9.5c6.7-1.9,14.1-5.6,22.2-11s14.3-10.9,18.5-16.4c4.3-5.5,6.4-10,6.4-13.5
	c0-1.5-1.6-2.2-4.9-2.2h-41.5c-6.6,0-11.4-1.8-14.5-5.5s-4.6-9.3-4.6-17c0-15,6.4-22.5,19.1-22.5h50.5c3.1,0,4.7-3.4,4.7-10.1
	c0-4-1.5-6.1-4.5-6.1h-42.9c-6.6,0-11.3-1.7-14.3-5.2c-2.9-3.4-4.4-9-4.4-16.7s1.5-13.3,4.4-16.7s7.7-5.2,14.3-5.2h148.7
	c6.6,0,11.3,1.7,14.3,5.2c2.9,3.4,4.4,9,4.4,16.7s-1.5,13.3-4.4,16.7s-7.7,5.2-14.3,5.2h-46.7c-2.4,0-4.1,1-5.1,3s-1.5,4.7-1.5,8.1
	c0,3.4,1.9,5.1,5.6,5.1h54.8c6.4,0,11.2,1.8,14.3,5.5c3.1,3.7,4.6,9.4,4.6,17.1s-1.5,13.4-4.5,17
	C1625.9,288.2,1621.1,290,1614.5,290L1614.5,290z"/>
<path class="st2" d="M361.9,637.7h50.8c8.5,0,14.4,1.7,17.6,5s4.8,10.5,4.8,21.4c0,15.2-2.9,22.8-8.8,22.8c-2.1,0-4.4-1.3-6.8-4
	c-8-8.5-24.8-12.8-50.4-12.8h-89.2c-16.8,0-29.3,1.5-37.6,4.4c-1.1,0.3-1.9,0.4-2.6,0.4c-0.7,0-1-0.3-1-1s0.3-1.9,1-3.6
	c0.7-1.7,1-5.7,1-11.8s-1.5-11.9-4.4-17.2c-0.3-0.5-0.4-0.9-0.4-1.2c0-1.6,1.6-2.4,4.8-2.4h46.8c2.7,0,4-1.9,4-5.6
	c0-3.7-1.3-5.6-4-5.6h-41.6c-8.8,0-13.2-2-13.2-6c0-0.5,0.1-1.3,0.4-2.4c3.2-8.3,6-17.5,8.4-27.6c0.5-2.1,2-3.2,4.4-3.2h41.6
	c2.7,0,4-1.3,4-3.8s-0.2-4.1-0.6-4.8s-1.5-1-3.4-1h-38c-3.5,0-5.2-0.7-5.2-2l0.4-6c0-14.4-6.7-25.5-20-33.2
	c-1.9-1.1-2.8-2.5-2.8-4.2s1.8-3.4,5.4-5c3.6-1.6,8.6-2.4,15-2.4h45.6c2.9,0,4.5-1.2,4.8-3.6c1.6-6.9,5-11.9,10.2-14.8
	s12.5-4.4,22-4.4s16.7,1.4,21.8,4.2c5.1,2.8,8.4,7.5,10,14.2c0.8,2.9,2.4,4.4,4.8,4.4h42.8c8.8,0,15,1.4,18.6,4.2s5.4,10.2,5.4,22.2
	s-1.7,19.4-5.2,22.2s-9.7,4.2-18.8,4.2h-42.4c-2.7,0-4,1.6-4,4.8s1.3,4.8,4,4.8h38.4c5.9,0,9.9,1.3,12.2,4c2.3,2.7,3.4,7.9,3.4,15.6
	c0,7.7-1.1,12.9-3.4,15.6c-2.3,2.7-6.3,4-12.2,4h-38.4c-2.7,0-4,1.9-4,5.6C357.9,635.8,359.3,637.7,361.9,637.7L361.9,637.7z
	 M231.6,570.1c0,4-1,10.3-3,18.8s-4.1,15.6-6.4,21.2c-2.3,5.6-3.9,8.8-5,9.6s-2.8,1.2-5.2,1.2c-6.4,0-10.6-0.7-12.6-2s-3-4.1-3-8.4
	v-54c0-5.1,0.5-8.6,1.4-10.6s2.6-3,5-3c5.1,0,11.1,2.3,18.2,7C228,554.6,231.6,561.3,231.6,570.1L231.6,570.1z M223,643.9
	c3.3,4.7,5,10.3,5,17s-3.1,12.7-9.4,18c-6.3,5.3-10.2,8-11.8,8s-3.2-0.4-4.8-1.2c-4.3-2.1-10.5-3.2-18.8-3.2
	c-13.1,0-24.2,4.5-33.4,13.4c-9.2,8.9-13.8,17.7-13.8,26.2c0,6.4,3.3,16.5,10,30.2s12.7,23.7,18.2,30s12.3,11.3,20.6,15
	c4,1.9,6,7.2,6,16v28.8c0,22.1-13.6,33.2-40.8,33.2c-16.3,0-27.3-2.1-33.2-6.4c-5.9-4.3-8.8-12.3-8.8-24v-24c0-2.1-0.3-3.5-1-4.2
	s-2.5-1.1-5.4-1.4c-11.7-0.5-21.5-5.1-29.2-13.6s-11.6-17.3-11.6-26.4c0-5.9,3-13,9-21.4s12.4-17.7,19.2-28s10.5-15.9,11.2-16.8
	c0.7-0.9,1-2.1,1-3.4c0-2.9-4.5-4.4-13.4-4.4S72,698,67.2,691.5S60,677,60,667.5s0.9-16.3,2.6-20.4c1.7-4.1,3.9-6.2,6.4-6.2
	s4.7,1.1,6.6,3.2c6.4,7.2,14.4,10.8,24,10.8s21.3-3.9,35-11.6c13.7-7.7,20.6-17.7,20.6-29.8s-4.1-27.1-12.4-45
	c-8.3-17.9-16.1-29.3-23.6-34.4c-5.9-4-8.8-8.4-8.8-13.2s3.1-8.7,9.4-11.8c6.3-3.1,15-4.6,26.2-4.6c24.8,0,37.2,9.9,37.2,29.6v92.4
	c0,2.4,0.4,4.1,1.2,5s4.6,1.4,11.4,1.4c6.8,0,12.2,0.7,16.2,2C216,636.2,219.6,639.2,223,643.9L223,643.9z M129.2,569.7
	c8,18.9,12,32.9,12,41.8c0,8.9-4.9,16.1-14.8,21.4c-9.9,5.3-18.1,8-24.8,8c-12.5,0-20.9-7.2-25.2-21.6c-3.5-12.5-7.1-22.5-10.8-30
	c-3.7-7.5-5.6-14-5.6-19.6c0-8.8,4.7-15.7,14.2-20.8s17.8-7.6,25-7.6C111.2,541.3,121.2,550.8,129.2,569.7L129.2,569.7z
	 M170.6,769.1c-5.5-10.3-10.3-19-14.6-26.2s-6.4-14-6.4-20.4s3.6-12.5,10.8-18.4s14.9-8.8,23.2-8.8c3.7,0,7.7,0.7,12,2.2
	s8.6,5.4,13,11.8c4.4,6.4,8.9,13.8,13.6,22.2c4.7,8.4,7,16.3,7,23.8s-4,14.2-12,20.2s-15.7,9-23.2,9
	C183.8,784.5,176,779.4,170.6,769.1L170.6,769.1z M243.2,756.3c0-8.4-2.2-17.1-6.6-26c-4.4-8.9-6.6-14.6-6.6-17s1.1-6.3,3.2-11.8
	c2.1-5.5,6.5-9.9,13.2-13.2s18.4-5,35.2-5h85.6c20,0,33.7,3,41.2,9s11.2,19.8,11.2,41.4v102c0,13.1-1.4,22.1-4.2,27.2
	c-2.8,5.1-8.7,8.3-17.6,9.8s-18.6,2.2-29,2.2s-19-0.3-25.8-0.8s-12.1-3-16-7.4s-5.8-11.1-5.8-20.2c0-17.1,5.2-25.6,15.6-25.6
	c1.6,0,3.9,0.3,7,0.8s5.9,0.8,8.4,0.8s4.3-0.5,5.4-1.6s1.6-3.1,1.6-6.2c0-3.1-0.3-4.9-0.8-5.6c-0.5-0.7-1.7-1-3.6-1h-7.6l-12-0.4
	c-8,0-14.1,2.4-18.4,7.2c-2.1,2.4-5.1,3.6-8.8,3.6h-12.8c-1.6,0-2.4,0.8-2.4,2.4v30c0,10.7-2.5,17.9-7.4,21.6
	c-4.9,3.7-13.3,5.6-25,5.6c-11.7,0-20-1.9-24.8-5.8c-4.8-3.9-7.2-11-7.2-21.4v-62.8c0-2.9,0.8-5.2,2.4-6.8
	C239,773,243.2,764.7,243.2,756.3L243.2,756.3z M296.7,785.7h58.4c2.7,0,4-2.1,4-6.4c0-4.3-1.3-6.4-4-6.4h-58.4
	c-1.9,0-3,0.5-3.4,1.6s-0.6,3.2-0.6,6.4S294.1,785.7,296.7,785.7L296.7,785.7z M297.5,739.7h58c2.4,0,3.6-1.2,3.6-3.6
	c0-4.8-2-7.2-6-7.2h-52.8c-5.1,0-7.6,2.5-7.6,7.6C292.7,738.6,294.3,739.7,297.5,739.7L297.5,739.7z M819.9,626.1h-36
	c-2.4,0-3.9,0.7-4.4,2.2s-0.8,3.9-0.8,7.2s0.3,5.6,0.8,6.8s2,1.8,4.4,1.8h24c18.1,0,27.2,8.7,27.2,26s-9.1,26-27.2,26h-23.2
	c-2.1,0-3.5,0.7-4.2,2s-1,3.9-1,7.6c0,3.7,0.3,6.1,0.8,7.2c0.5,1.1,1.9,1.6,4,1.6h29.2c6.9,0,12.6,2.2,17,6.6
	c4.4,4.4,6.6,10.5,6.6,18.2c0,16.8-7.9,25.2-23.6,25.2h-28c-2.7,0-4.3,0.5-5,1.4s-1,3.5-1,7.6s0.3,6.7,1,7.8s2.6,1.6,5.8,1.6h31.2
	c17.9,0,26.8,11,26.8,33s-8.9,33-26.8,33H677.1c-3.7,0-5.6,1.7-5.6,5.2c0,16-12.5,24-37.6,24c-13.6,0-23.3-2.5-29.2-7.6
	s-8.8-13.6-8.8-25.6V692.5c0-2.1-0.2-3.6-0.6-4.4c-0.4-0.8-1.8-1.5-4.2-2c-9.9-2.1-17.5-6.3-23-12.6s-8.2-14.2-8.2-23.8
	s3.2-19.3,9.6-29.2c18.4-29.9,34-60.4,46.8-91.6c6.9-17.9,20-26.8,39.2-26.8c28,0,42,9.3,42,28c0,6.9-2,15.2-6,24.8
	c-0.8,2.1-1.2,4.2-1.2,6.2s2.6,3,7.8,3s8.5-0.5,10-1.6s2.2-2.9,2.2-5.6c0-2.7-0.8-6.5-2.4-11.4c-1.6-4.9-2.4-8.9-2.4-11.8
	c0-6.9,2.9-13,8.6-18.2c5.7-5.2,15.7-7.8,29.8-7.8s24,3.1,29.6,9.4c5.6,6.3,11.7,19.4,18.4,39.4c1.3,4.3,4.3,6.4,8.8,6.4h19.2
	c15.2,0,22.8,10.5,22.8,31.6c0,11.7-1.6,19.9-4.8,24.6C834.7,623.8,828.7,626.1,819.9,626.1L819.9,626.1z M707.5,627.7
	c-1.1-1.1-3.3-1.6-6.8-1.6h-21.6c-3.2,0-5.3,0.6-6.2,1.8s-1.4,3.7-1.4,7.6c0,3.9,0.4,6.3,1.2,7.2s2.5,1.4,5.2,1.4h22.8
	c3.5,0,5.7-0.5,6.8-1.4s1.6-3.4,1.6-7.4S708.6,628.8,707.5,627.7L707.5,627.7z M707.5,697.7c-1.1-1.1-3.3-1.6-6.8-1.6h-21.6
	c-3.2,0-5.3,0.6-6.2,1.8s-1.4,3.8-1.4,7.8s0.4,6.5,1.2,7.4s2.5,1.4,5.2,1.4h22.8c3.5,0,5.7-0.5,6.8-1.4s1.6-3.5,1.6-7.6
	C709.1,701.4,708.6,698.8,707.5,697.7L707.5,697.7z M707.5,766.1c-1.1-1.1-3.3-1.6-6.8-1.6h-21.6c-3.2,0-5.3,0.6-6.2,1.8
	s-1.4,3.8-1.4,7.8s0.4,6.5,1.2,7.4s2.5,1.4,5.2,1.4h22.8c3.5,0,5.7-0.5,6.8-1.4s1.6-3.5,1.6-7.6
	C709.1,769.8,708.6,767.2,707.5,766.1L707.5,766.1z M549.9,629.9c-1.1,3.9-2.7,5.8-5,5.8s-12.4-5.1-30.4-15.2
	c-18-10.1-29-17.7-33-22.6c-4-4.9-6-11.3-6-19c0-12.5,4.3-23.7,12.8-33.6c8.5-9.9,19.2-14.8,32-14.8c4.5,0,9.7,1,15.4,3
	s14.5,6.3,26.2,12.8s18.5,10.6,20.4,12.2c1.9,1.6,2.8,3.2,2.8,4.8c0,2.7-9.1,19.3-27.2,50C553.7,620.5,551,626,549.9,629.9
	L549.9,629.9z M547.1,685.7c2.7-4,4.7-6,6-6s2.8,1.1,4.4,3.2c3.5,4.5,10.7,9.2,21.6,14c1.3,0.5,2.2,1.3,2.6,2.2
	c0.4,0.9,0.6,3,0.6,6.2v79.6c0,6.7-0.7,10.8-2,12.4l-15.6,19.2c-9.3,11.2-17.1,19-23.2,23.4c-6.1,4.4-13.1,6.6-20.8,6.6
	s-18.1-4.7-31.2-14s-19.6-20.8-19.6-34.4c0-10.1,3.3-19.1,10-26.8C508.2,738.5,530.6,710,547.1,685.7L547.1,685.7z M1220.1,866.9
	c-6.3,7.2-16.1,10.8-29.4,10.8h-28c-12.8,0-21.9-2.5-27.4-7.4s-8.2-12.8-8.2-23.6s1.5-18.8,4.6-24s7.3-8.3,12.6-9.4
	c5.3-1.1,8.7-2.1,10.2-3s2.2-2.9,2.2-5.8c0-2.9-2.9-4.4-8.6-4.4s-11,1.3-15.8,3.8s-8.4,5.8-10.8,9.8s-9,6-19.8,6s-17.1,0.4-19,1.2
	s-2.8,2.5-2.8,5.2v23.6c0,12.5-2.7,20.6-8.2,24.2c-5.5,3.6-15.4,5.4-29.8,5.4s-24.1-1.9-29.2-5.8c-5.1-3.9-7.6-11.8-7.6-23.8v-80.4
	c0-5.1,0.6-8.5,1.8-10.2s3.8-3.3,7.8-4.6c11.2-3.5,18.5-8.7,22-15.8s5.2-17.7,5.2-31.8c0-22.4-9.1-36.5-27.2-42.4
	c-4.3-1.3-6.4-3.7-6.4-7s2.5-6.3,7.6-9s9.2-4,12.4-4s5.9,0.8,8,2.4c3.7,2.7,16.5,4,38.4,4h105.2c11.2,0,18.9-0.9,23.2-2.6
	c4.3-1.7,7.6-2.6,10-2.6c10.9,0,16.4,12.5,16.4,37.6v149.2C1229.5,848.2,1226.3,859.7,1220.1,866.9L1220.1,866.9z M1155.7,699.5
	c-0.7-0.9-1.9-1.4-3.8-1.4h-66.8c-2.1,0-3.5,0.5-4.2,1.4s-1,3.3-1,7s0.3,6.2,1,7.4s2.1,1.8,4.2,1.8h66.8c2.1,0,3.5-0.7,4-2.2
	s0.8-3.9,0.8-7.4S1156.3,700.4,1155.7,699.5L1155.7,699.5z M1155.7,753.5c-0.7-0.9-1.9-1.4-3.8-1.4h-66.8c-2.1,0-3.5,0.5-4.2,1.4
	s-1,3.3-1,7.2s0.3,6.3,1,7.4c0.7,1.1,2.1,1.6,4.2,1.6h66.8c1.9,0,3.1-0.6,3.8-1.8c0.7-1.2,1-3.7,1-7.4S1156.3,754.4,1155.7,753.5
	L1155.7,753.5z M1183.1,637.7h-122.4c-8.5,0-14.3-0.6-17.4-1.8s-4.6-3.3-4.6-6.4c0-3.1,0.3-7,1-11.8s1-9.7,1-14.8
	c0-25.3-6.8-40.9-20.4-46.8c-6.9-2.9-10.4-8.8-10.4-17.6c0-7.7,3.1-14.3,9.2-19.6s14.5-8,25.2-8h145.2c20,0,30,8.9,30,26.8v61.6
	C1219.5,624.9,1207.3,637.7,1183.1,637.7L1183.1,637.7z M1145.1,565.7h-51.6c-1.9,0-3.1,0.6-3.8,1.8c-0.7,1.2-1,3.5-1,7
	s0.3,5.9,1,7.2s1.9,2,3.8,2h51.6c2.4,0,4-0.6,4.8-1.8s1.2-4.2,1.2-9C1151.1,568.1,1149.1,565.7,1145.1,565.7L1145.1,565.7z
	 M1020.7,573.5c4.8,5.5,7.2,15,7.2,28.6s-2.1,22.7-6.2,27.2c-4.1,4.5-13.1,6.8-27,6.8c-2.9,0-4.4,1.7-4.4,5.2v30c0,2.9,2,4.4,6,4.4
	c21.9,0,32.8,10.9,32.8,32.8c0,11.5-1.9,19.8-5.6,25c-3.7,5.2-11.9,8.7-24.4,10.6c-2.9,0.5-5.1,1.3-6.6,2.2s-2.2,2.7-2.2,5.4v62
	c0,23.5-3.3,39.7-9.8,48.6c-6.5,8.9-19.1,13.4-37.8,13.4h-32.4c-17.1,0-28.2-2.4-33.4-7.2s-7.8-15.5-7.8-32
	c0-22.9,7.5-34.4,22.4-34.4c5.9,0,9.6-0.5,11.2-1.6c1.6-1.1,2.4-3.3,2.4-6.8v-36.8c0-4.3-1.5-6.4-4.6-6.4s-6.2,0.3-9.4,1
	s-6.1,1-8.8,1c-8.5,0-14.2-3.6-17-10.8s-4.2-16.1-4.2-26.8s2.3-18.6,6.8-23.8s11.9-8.6,22-10.2c10.1-1.6,15.2-4.1,15.2-7.6v-32
	c0-2.4-0.4-3.9-1.2-4.4s-2.1-0.8-4-0.8c-13.3,0-22.7-2.7-28-8.2s-8-14.8-8-28s2.5-22.3,7.6-27.2s13.9-7.4,26.4-7.4
	c2.7,0,4.5-0.3,5.6-0.8s1.6-2,1.6-4.4v-29.2c0-11.5,3.4-19.3,10.2-23.4s17.8-6.2,33-6.2s26,2.2,32.4,6.6c6.4,4.4,9.6,12.1,9.6,23
	v30.4c0,2.7,1.7,4,5.2,4C1007.5,565.3,1015.9,568,1020.7,573.5L1020.7,573.5z M1599.4,623.7h-86.8c-4,0-6.7,0.6-8.2,1.8
	s-2.2,3.5-2.2,7s2.4,11.3,7.2,23.6c4.8,12.3,9.7,18.4,14.8,18.4c2.4,0,5.2-1.5,8.4-4.4c19.2-18.1,35.7-27.2,49.6-27.2
	c10.4,0,19.7,5.1,27.8,15.2c8.1,10.1,12.2,19.6,12.2,28.4c0,12.3-8.3,23.6-24.8,34c-10.7,6.9-18.3,12.4-23,16.4s-7,7.2-7,9.6
	c0,1.6,1.8,4.3,5.4,8s9.6,9.1,18,16.2c8.4,7.1,17.4,13.9,27,20.6c12.5,8.5,18.8,18.3,18.8,29.4s-4.7,23.1-14.2,36
	s-19.7,19.4-30.6,19.4c-5.3,0-11.1-1.6-17.4-4.8s-15.7-9.3-28.4-18.2c-12.7-8.9-20.3-15.1-23-18.6s-4.3-7.5-4.8-12
	c-1.9-16.3-5.1-29.5-9.8-39.6c-4.7-10.1-14.1-16-28.2-17.6c-3.7-0.5-6.7-2.3-9-5.2s-5.3-8.1-9.2-15.4c-3.9-7.3-7.3-15-10.2-23
	c-2.9-8-5.7-18-8.4-30c-1.3-5.6-3.3-8.4-5.8-8.4s-6.6,2-12.2,6s-9.1,7.5-10.6,10.4s-2.2,7.2-2.2,12.8v66c0,2.9,0.7,4.8,2,5.6
	s3.3,1.2,5.8,1.2s9.1-1,19.6-3s20.1-3,28.6-3c16,0,25.8,5.4,29.4,16.2s5.4,20.5,5.4,29.2s-2.4,15.3-7.2,19.8
	c-4.8,4.5-13.7,8.7-26.6,12.6c-12.9,3.9-31.7,8.1-56.2,12.8s-40.1,7-46.8,7c-22.7,0-34-12.7-34-38v-73.6c0-6.1-0.9-9.2-2.6-9.2
	s-3.7,0.5-5.8,1.6c-10.9,6.1-20.4,9.2-28.4,9.2c-10.7,0-18.7-5.2-24-15.6c-5.3-10.4-8-20.5-8-30.4c0-18.1,9.5-31.3,28.6-39.6
	s36.2-17.9,51.4-28.8c15.2-10.9,22.8-18.9,22.8-24c0-3.2-2.9-4.8-8.8-4.8h-57.6c-21.1,0-31.6-13.1-31.6-39.2c0-12.5,2.7-22.2,8.2-29
	s13.3-10.2,23.4-10.2h94.4c3.5,0,5.7-0.4,6.8-1.2c1.1-0.8,1.5-2.3,1.2-4.4l-0.8-8.4c-0.3-8.5,4.6-15.6,14.6-21.2
	c10-5.6,22.5-8.4,37.4-8.4c10.7,0,19.7,2.3,27.2,6.8c7.5,4.5,11.7,12.1,12.8,22.8l0.8,8c0.3,2.7,0.8,4.3,1.6,5c0.8,0.7,2.8,1,6,1
	h97.2c21.1,0,31.6,13.1,31.6,39.2C1631,610.6,1620.5,623.7,1599.4,623.7L1599.4,623.7z"/>
<g>
	<path class="st2" d="M75.6,166.4c2.5,1.2,35.6,28,66.9,29.9s37.8-1.8,48.7-3.4c1.9-0.3,10.5-1.6,14.5,5.6
		c21.9,39.1,57,136.6,63.4,173.6s-21.8,59.4-35.3,66.9c-17.5,8.7-68.8,4.1-75.7-17.8c-2-6.3,11.1-33.3,15.1-56
		c5.5-31.3,3.8-59.8,3.8-59.8s-53.9,33-95.7-9.9C51.4,264.8,51.1,185.9,57.9,174C64.9,161.3,73.1,165.2,75.6,166.4z"/>
	<path class="st2" d="M234.1,173.5c12.6-6.2,46.8-33.1,64.5-60.7c20-32.1,24.2-77.2,24.9-81.4c0.9-5.1,7.4-14.6,19.1-9.5
		c38.9,17.7,85,101.7,78.9,146.1c-6.9,50.5-61.5,61.6-61.5,61.6s21.3,23.1,45.4,32c30.7,11.4,58.8,10.4,58.8,10.4
		s14.1,0.6,14.9,14.3c0.5,7.4-17.6,85.5-100.4,92.6c-23.4,1-49.8-12.4-67.9-29.2c-34.7-32.2-86.1-154.5-86.9-157.8
		C222.9,187.6,221.5,179.7,234.1,173.5z"/>
</g>
<g>
	<path class="st3" d="M96.9,123.8c0,0,100.3-16,146.7,83.5"/>
	<path class="st3" d="M234.7,43.4c0,0-89.7,73.3-34.8,184.5"/>
	<g>
		<line class="st3" x1="248.5" y1="219.5" x2="253.7" y2="232.2"/>
		<line class="st3" x1="259.8" y1="245" x2="265.7" y2="257.3"/>
		<line class="st3" x1="272.2" y1="269.8" x2="278.5" y2="281.9"/>
		<line class="st3" x1="285.7" y1="294.2" x2="292.6" y2="306"/>
		<line class="st3" x1="300.1" y1="317.9" x2="307.6" y2="329.3"/>
		<line class="st3" x1="316.8" y1="340" x2="327.6" y2="348.3"/>
		<line class="st3" x1="340.2" y1="354.7" x2="353" y2="359.4"/>
		<line class="st3" x1="366.8" y1="362.1" x2="380.4" y2="362"/>
		<line class="st3" x1="394" y1="358.1" x2="406.7" y2="353"/>
		<line class="st3" x1="418.7" y1="345.5" x2="429" y2="336.7"/>
		<line class="st3" x1="438.3" y1="325.9" x2="445.7" y2="314.4"/>
		<line class="st3" x1="451.2" y1="301.3" x2="455.6" y2="288.4"/>
		<line class="st3" x1="345.3" y1="225" x2="357.9" y2="219.6"/>
		<line class="st3" x1="369.2" y1="214" x2="380.7" y2="206.5"/>
		<line class="st3" x1="390.3" y1="196.3" x2="397.3" y2="184.6"/>
		<line class="st3" x1="401.4" y1="171" x2="401.7" y2="157.4"/>
		<line class="st3" x1="398.9" y1="143.7" x2="395.7" y2="130.4"/>
		<line class="st3" x1="390.5" y1="117.1" x2="385.3" y2="104.5"/>
		<line class="st3" x1="378" y1="92.3" x2="370.9" y2="80.6"/>
		<line class="st3" x1="361.7" y1="70" x2="353" y2="59.4"/>
		<line class="st3" x1="342.3" y1="50.1" x2="332.1" y2="41.1"/>
	</g>
	<g>
		<line class="st3" x1="204.2" y1="238" x2="209.4" y2="250.6"/>
		<line class="st3" x1="215" y1="263.7" x2="220.3" y2="276.3"/>
		<line class="st3" x1="225.2" y1="289.8" x2="230.1" y2="302.6"/>
		<line class="st3" x1="234.7" y1="316" x2="238.9" y2="328.9"/>
		<line class="st3" x1="242.9" y1="342.2" x2="246.9" y2="355.2"/>
		<line class="st3" x1="250.7" y1="369.1" x2="251.6" y2="382.7"/>
		<line class="st3" x1="249.4" y1="396.4" x2="243.8" y2="408.9"/>
		<line class="st3" x1="234.5" y1="419.4" x2="222.6" y2="426.2"/>
		<line class="st3" x1="209.2" y1="428.9" x2="195.6" y2="428"/>
		<line class="st3" x1="181.8" y1="424.4" x2="169.4" y2="418.7"/>
		<line class="st3" x1="156.4" y1="301.9" x2="143" y2="304.7"/>
		<line class="st3" x1="129.4" y1="304.8" x2="116" y2="302.2"/>
		<line class="st3" x1="102.8" y1="296.7" x2="91.5" y2="289"/>
		<line class="st3" x1="82.6" y1="277.9" x2="76.5" y2="265.7"/>
		<line class="st3" x1="72.5" y1="252.5" x2="68.8" y2="239.3"/>
		<line class="st3" x1="67.2" y1="225" x2="66.1" y2="211.4"/>
		<line class="st3" x1="67.4" y1="197.1" x2="68.7" y2="183.5"/>
	</g>
</g>
</svg>
